<?xml version="1.0" encoding="UTF-8"?>
<svg version="1.1" xmlns="http://www.w3.org/2000/svg" width="2363" height="2363">
<path d="M0 0 C2.26429627 0.40678522 4.52917002 0.81038639 6.79492188 1.20898438 C57.47086245 10.13337762 104.07086052 29.7760584 141.64746094 65.65527344 C143.0771051 66.91425073 144.51379487 68.16530975 145.95996094 69.40527344 C152.39707643 75.00449993 158.16485449 81.12636805 163.64746094 87.65527344 C164.48792969 88.64527344 165.32839844 89.63527344 166.19433594 90.65527344 C200.06222959 131.31902733 225.91431019 183.06143921 221.4453125 237.09960938 C220.88017014 241.70818536 219.85869911 246.18060122 218.64746094 250.65527344 C218.4434668 251.42500488 218.23947266 252.19473633 218.02929688 252.98779297 C207.66651799 291.35420939 185.8456254 323.22428494 155.62792969 348.95605469 C153.32076142 350.93557776 151.08099311 352.98169464 148.83496094 355.03027344 C145.44860913 358.08725364 142.00471388 361.03370799 138.45996094 363.90527344 C128.45574194 372.0133604 118.78197637 380.5217194 109.30761719 389.24121094 C107.18181019 391.17035738 105.03113751 393.05350154 102.85839844 394.92871094 C91.85341237 404.53789858 81.540626 415.06147604 72.64746094 426.65527344 C71.50857422 428.05132813 71.50857422 428.05132813 70.34667969 429.47558594 C46.28103138 459.49047745 32.04477907 495.16107962 24.64746094 532.65527344 C24.43718262 533.68620117 24.2269043 534.71712891 24.01025391 535.77929688 C17.69078239 567.41167922 17.24053312 601.77511017 35.46777344 629.63183594 C52.10581775 652.71041354 78.59385064 663.44604616 104.77246094 672.28027344 C106.60345337 672.90434082 106.60345337 672.90434082 108.47143555 673.54101562 C111.81150172 674.67787046 115.15443922 675.80603455 118.49835205 676.93151855 C120.72289193 677.68067631 122.94670043 678.43197571 125.17041016 679.18359375 C149.5185443 687.40798548 149.5185443 687.40798548 174.09570312 694.91162109 C177.05724097 695.7746946 180.01255207 696.65753477 182.96777344 697.54199219 C194.04198141 700.85191008 205.1290958 704.08590664 216.27246094 707.15527344 C227.89159357 710.36581115 239.35142091 714.00326834 250.81103516 717.73828125 C254.1404786 718.81466183 257.48021259 719.85483233 260.82275391 720.88964844 C294.02181118 731.20837118 325.53147524 744.21792675 356.64746094 759.65527344 C358.19282753 760.41480797 359.73837787 761.17396884 361.28417969 761.93261719 C365.08868055 763.8079351 368.87259865 765.72107937 372.64746094 767.65527344 C373.30262695 767.98914063 373.95779297 768.32300781 374.6328125 768.66699219 C391.97197406 777.53857461 408.62728918 787.58164953 424.64746094 798.65527344 C425.50815186 799.24574463 425.50815186 799.24574463 426.38623047 799.84814453 C439.11318183 808.61113976 451.16092045 818.32229578 462.64746094 828.65527344 C463.73800781 829.60853516 463.73800781 829.60853516 464.85058594 830.58105469 C476.05133429 840.46300525 486.41296458 850.90809783 495.64746094 862.65527344 C496.5519763 863.73854546 497.45970837 864.81913719 498.37011719 865.89746094 C522.06924656 894.23897367 536.35336419 926.53622066 546.64746094 961.65527344 C546.88851563 962.46383789 547.12957031 963.27240234 547.37792969 964.10546875 C559.89763693 1006.5017501 564.86627547 1051.82911251 564.89746094 1095.90527344 C564.89847305 1097.22054016 564.89847305 1097.22054016 564.89950562 1098.56237793 C564.86150872 1130.17721658 561.46704746 1161.43934545 556.64746094 1192.65527344 C556.54409424 1193.33299805 556.44072754 1194.01072266 556.33422852 1194.70898438 C550.73134781 1231.28644979 541.38443598 1267.58342377 529.64746094 1302.65527344 C529.0182883 1304.57144626 528.38911787 1306.48761982 527.76004028 1308.40382385 C521.24432899 1328.18042265 513.73836715 1347.47406853 505.64746094 1366.65527344 C505.17888672 1367.7688623 504.7103125 1368.88245117 504.22753906 1370.02978516 C499.47868912 1381.26608795 494.5355204 1392.35675378 488.92041016 1403.1875 C487.36762352 1406.19777375 485.83870863 1409.21984583 484.30761719 1412.24121094 C476.75074919 1427.10233042 468.82145732 1441.65603904 460.25146484 1455.96484375 C458.77445886 1458.44225714 457.32178579 1460.93187979 455.87792969 1463.42871094 C435.64926492 1498.15064048 411.99692598 1531.57082546 386.97412109 1562.98144531 C385.60912075 1564.70364671 384.25751078 1566.43562167 382.90917969 1568.17089844 C377.5103928 1575.11151394 371.96742907 1581.89496123 366.25683594 1588.58105469 C363.88477059 1591.36260431 361.57253381 1594.18876005 359.27246094 1597.03027344 C351.29015656 1606.82285041 342.9588487 1616.31899416 334.38354492 1625.59521484 C331.99030405 1628.18427828 329.63462156 1630.79534988 327.33496094 1633.46777344 C323.8633488 1637.46895352 320.25819393 1641.34255248 316.64746094 1645.21777344 C316.06569092 1645.84337158 315.4839209 1646.46896973 314.88452148 1647.11352539 C312.02442754 1650.17300185 309.13184229 1653.1815341 306.14746094 1656.12011719 C303.77698796 1658.46915029 301.54826476 1660.88462484 299.37768555 1663.41894531 C295.88826088 1667.42867228 292.22754267 1671.2203547 288.46386719 1674.97167969 C287.80466782 1675.63183578 287.14546844 1676.29199188 286.46629333 1676.97215271 C285.08349259 1678.3556285 283.69945018 1679.73786427 282.31420898 1681.11889648 C280.21515751 1683.21259013 278.12150154 1685.31157218 276.02832031 1687.41113281 C274.67382308 1688.76496914 273.31901562 1690.11849519 271.96386719 1691.47167969 C271.34902969 1692.08854141 270.7341922 1692.70540314 270.10072327 1693.34095764 C266.32888668 1697.09289377 262.43820575 1700.65310366 258.4026947 1704.120224 C256.03597605 1706.19005094 253.84018794 1708.40328355 251.64746094 1710.65527344 C248.22098933 1714.11803143 244.73197964 1717.39152467 241.03027344 1720.55371094 C237.72522934 1723.46865147 234.54009613 1726.50634308 231.33496094 1729.53027344 C226.16080915 1734.39890023 220.87761147 1739.01297545 215.32324219 1743.44824219 C212.3324853 1745.91507086 209.48400873 1748.51514739 206.64746094 1751.15527344 C202.09646694 1755.3848922 197.40447834 1759.3760841 192.56542969 1763.27246094 C189.18771822 1766.03069921 185.88544574 1768.86806059 182.58496094 1771.71777344 C177.89757785 1775.75558228 173.16719033 1779.71430233 168.31152344 1783.54980469 C166.29760045 1785.1414535 164.29363255 1786.74274765 162.29589844 1788.35449219 C153.6334286 1795.3364963 144.84952618 1802.14273223 135.98974609 1808.87207031 C133.49983623 1810.76766148 131.01655971 1812.67170874 128.53417969 1814.57714844 C117.37449502 1823.13270082 106.10774486 1831.50684624 94.64746094 1839.65527344 C93.96828613 1840.13883301 93.28911133 1840.62239258 92.58935547 1841.12060547 C88.40820542 1844.09393471 84.21515418 1847.0499002 80.01416016 1849.99511719 C78.35322208 1851.16020682 76.69349563 1852.32702475 75.03466797 1853.49511719 C60.7716804 1863.53399815 46.32385254 1873.23172637 31.64746094 1882.65527344 C30.74705078 1883.23486816 29.84664062 1883.81446289 28.91894531 1884.41162109 C5.52718304 1899.45342327 -18.16523229 1913.92744306 -42.35253906 1927.65527344 C-43.36074707 1928.22955078 -44.36895508 1928.80382813 -45.40771484 1929.39550781 C-85.36168996 1952.12269197 -126.26608058 1973.15914056 -168.35253906 1991.65527344 C-169.00875244 1991.94448669 -169.66496582 1992.23369995 -170.34106445 1992.53167725 C-205.34204117 2007.94476316 -241.09572531 2021.33638347 -277.49438477 2033.05432129 C-280.25840058 2033.94824126 -283.01615698 2034.86095278 -285.77441406 2035.77246094 C-295.14707314 2038.84622145 -304.53339925 2041.60776759 -314.13378906 2043.88354492 C-318.79908389 2044.98962882 -323.39572163 2046.23878443 -327.99707031 2047.58886719 C-335.44469641 2049.73758697 -342.96070088 2051.42195487 -350.54003906 2053.03027344 C-353.39455573 2053.64192896 -356.24853418 2054.25607879 -359.10253906 2054.87011719 C-359.8109343 2055.02201004 -360.51932953 2055.17390289 -361.24919128 2055.33039856 C-365.45949334 2056.2360795 -369.65894268 2057.17835575 -373.85253906 2058.15917969 C-405.26040659 2065.4796422 -437.11868127 2070.49694046 -469.04003906 2074.96777344 C-470.80253998 2075.21512238 -470.80253998 2075.21512238 -472.60064697 2075.46746826 C-553.7979934 2086.80120228 -636.68873074 2090.48526216 -718.35253906 2081.65527344 C-719.23596985 2081.56097046 -720.11940063 2081.46666748 -721.02960205 2081.36950684 C-732.85063956 2080.09524412 -744.61114662 2078.52450462 -756.35253906 2076.65527344 C-757.13145508 2076.53130188 -757.91037109 2076.40733032 -758.71289062 2076.27960205 C-791.24746187 2071.05591136 -823.87478383 2064.49800719 -855.35253906 2054.65527344 C-856.44743652 2054.31979492 -857.54233398 2053.98431641 -858.67041016 2053.63867188 C-888.00361646 2044.62217199 -916.71497353 2034.04768553 -944.35253906 2020.65527344 C-945.44308594 2020.13271973 -945.44308594 2020.13271973 -946.55566406 2019.59960938 C-983.86789254 2001.6733622 -1018.99161779 1979.23828072 -1050.36816406 1952.20214844 C-1053.19335447 1949.79112207 -1056.07276165 1947.46924866 -1058.97753906 1945.15527344 C-1063.91330134 1941.14631369 -1068.34903958 1936.75730274 -1072.79003906 1932.22167969 C-1075.56718082 1929.44030448 -1078.47220294 1926.88306154 -1081.45410156 1924.32714844 C-1086.80057186 1919.61873427 -1091.6120544 1914.44067205 -1096.24707031 1909.04199219 C-1098.45831778 1906.53536473 -1100.73190469 1904.09809014 -1103.02001953 1901.66186523 C-1109.08458544 1895.20103015 -1114.8339505 1888.59346485 -1120.35253906 1881.65527344 C-1121.27195784 1880.52672801 -1122.19259942 1879.39917805 -1123.11425781 1878.27246094 C-1147.4951985 1848.34250377 -1167.82429965 1815.44969674 -1186.35253906 1781.65527344 C-1186.77486816 1780.89327637 -1187.19719727 1780.1312793 -1187.63232422 1779.34619141 C-1206.58842162 1745.10891111 -1220.76740492 1708.19619779 -1233.42286682 1671.24291992 C-1234.89471194 1666.95002966 -1236.42653 1662.68182996 -1237.97753906 1658.41699219 C-1240.16563773 1652.30951883 -1242.02760392 1646.16424316 -1243.72753906 1639.90527344 C-1244.01862549 1638.84381104 -1244.30971191 1637.78234863 -1244.60961914 1636.6887207 C-1245.21915514 1634.46279522 -1245.82664376 1632.23630813 -1246.43212891 1630.00927734 C-1247.33981687 1626.70163351 -1248.2746596 1623.40274967 -1249.21582031 1620.10449219 C-1255.06844111 1599.40525228 -1258.69694705 1579.73675694 -1258.79003906 1558.21777344 C-1258.79639374 1557.4694928 -1258.80274841 1556.72121216 -1258.80929565 1555.95025635 C-1258.9388164 1531.47453675 -1253.32449588 1509.10305258 -1236.35253906 1490.65527344 C-1218.9364868 1474.06724268 -1197.86817819 1467.80398723 -1174.88232422 1463.18701172 C-1172.61278179 1462.70997414 -1170.37185844 1462.17738527 -1168.12597656 1461.60058594 C-1164.42278854 1460.67287217 -1160.73522889 1459.94988274 -1156.97753906 1459.28027344 C-1151.92140944 1458.36390587 -1146.90307767 1457.35379229 -1141.89631653 1456.19691467 C-1135.332936 1454.68817999 -1128.78188004 1453.31020257 -1122.12597656 1452.27636719 C-1121.32913956 1452.15168564 -1120.53230255 1452.02700409 -1119.71131897 1451.89854431 C-1105.81038611 1449.76569079 -1091.84924455 1448.03198749 -1077.9050293 1446.21020508 C-1063.26412047 1444.29401062 -1048.6437552 1442.31196068 -1034.0589447 1440.00270081 C-1028.19874655 1439.07649555 -1022.33621156 1438.23503137 -1016.45018005 1437.48928833 C-1005.47036858 1436.077461 -995.18539932 1434.56225015 -987.67675781 1425.67089844 C-978.93733673 1414.21795261 -974.93213215 1399.63198078 -975.10253906 1385.34277344 C-975.10930664 1384.51463135 -975.11607422 1383.68648926 -975.12304688 1382.83325195 C-975.37694704 1367.68043135 -979.01462138 1351.37192429 -990.35253906 1340.40527344 C-1000.0675123 1332.93701778 -1013.49549603 1329.7725797 -1024.93774414 1325.90209961 C-1026.00790771 1325.53963135 -1027.07807129 1325.17716309 -1028.18066406 1324.80371094 C-1029.12844727 1324.4857959 -1030.07623047 1324.16788086 -1031.05273438 1323.84033203 C-1033.72342766 1322.88120616 -1036.3457959 1321.86699999 -1038.97631836 1320.80566406 C-1044.79217116 1318.46075384 -1050.66277785 1316.27551863 -1056.54394531 1314.10058594 C-1058.26012306 1313.46453934 -1058.26012306 1313.46453934 -1060.01097107 1312.81564331 C-1062.42187187 1311.92251646 -1064.83301392 1311.03004058 -1067.24438477 1310.13818359 C-1070.88076617 1308.79295224 -1074.51611753 1307.44496593 -1078.15136719 1306.09667969 C-1090.51742707 1301.51536064 -1102.89436684 1296.98012817 -1115.35253906 1292.65527344 C-1116.78687802 1292.15531011 -1118.22120382 1291.65530906 -1119.65551758 1291.15527344 C-1123.31951108 1289.87986977 -1126.98636946 1288.61296498 -1130.65478516 1287.3503418 C-1132.1205069 1286.84510579 -1133.5856775 1286.33826804 -1135.05029297 1285.82983398 C-1144.54542037 1282.53429243 -1154.07383456 1279.48576153 -1163.73632812 1276.71728516 C-1168.70727709 1275.25741289 -1173.51584412 1273.50407175 -1178.35253906 1271.65527344 C-1179.89780488 1271.08412938 -1181.44341147 1270.51390689 -1182.98925781 1269.94433594 C-1205.27044788 1261.67558996 -1228.57836354 1252.91850668 -1246.35253906 1236.65527344 C-1247.238125 1235.85089844 -1248.12371094 1235.04652344 -1249.03613281 1234.21777344 C-1262.45752572 1221.45448747 -1270.15614544 1204.14499368 -1270.65332031 1185.63574219 C-1270.67277976 1183.03815589 -1270.67603384 1180.44040936 -1270.66503906 1177.84277344 C-1270.66321625 1177.15797913 -1270.66139343 1176.47318481 -1270.65951538 1175.76763916 C-1270.6107427 1164.83461436 -1269.82395621 1154.25043143 -1267.86621094 1143.48486328 C-1267.27899541 1140.25015416 -1266.72883171 1137.01010592 -1266.18066406 1133.76855469 C-1265.33931624 1128.81417002 -1264.48296798 1123.86274399 -1263.61425781 1118.91308594 C-1262.61630234 1113.21026671 -1261.66216347 1107.50157519 -1260.72900391 1101.7878418 C-1259.38453945 1093.55676073 -1257.94741148 1085.40056859 -1256.10839844 1077.26464844 C-1255.29017496 1073.35747274 -1254.63557631 1069.4355434 -1254.00488281 1065.49511719 C-1252.36774979 1055.48632533 -1250.44246156 1045.54156102 -1248.47753906 1035.59277344 C-1248.1216169 1033.78298413 -1247.76582406 1031.97316939 -1247.41015625 1030.16333008 C-1246.71123555 1026.60954569 -1246.0105846 1023.05610882 -1245.30859375 1019.50292969 C-1244.48580426 1015.33624713 -1243.67172911 1011.16794237 -1242.86035156 1006.99902344 C-1240.80448138 996.48995339 -1238.57219747 986.08910506 -1235.87939453 975.72509766 C-1234.84241832 971.65119391 -1233.88397217 967.55828481 -1232.91503906 963.46777344 C-1232.70347168 962.57968994 -1232.4919043 961.69160645 -1232.27392578 960.77661133 C-1231.221346 956.35202557 -1230.18243668 951.92491924 -1229.16894531 947.49121094 C-1226.28898811 934.98685241 -1222.85309755 922.69886407 -1219.17382812 910.40722656 C-1218.42986254 907.91436684 -1217.69641946 905.41883839 -1216.96972656 902.92089844 C-1214.82569489 895.55208253 -1212.60929347 888.21116068 -1210.29956055 880.89257812 C-1208.57488489 875.4128529 -1206.92853541 869.91129961 -1205.29003906 864.40527344 C-1202.29390561 854.36404924 -1199.07460053 844.45330058 -1195.35253906 834.65527344 C-1194.80279419 833.20677002 -1194.80279419 833.20677002 -1194.24194336 831.72900391 C-1178.00767436 789.18733748 -1178.00767436 789.18733748 -1167.35253906 774.65527344 C-1166.84851562 773.94628906 -1166.34449219 773.23730469 -1165.82519531 772.50683594 C-1157.18605175 761.48083854 -1142.7111045 755.14474109 -1129.08300781 753.35766602 C-1105.2274037 750.87270725 -1083.29000506 754.72067257 -1060.07080078 759.84082031 C-1055.29209468 760.88755462 -1050.5066316 761.90096332 -1045.72070312 762.9140625 C-1035.43777974 765.09598558 -1025.16675454 767.33099786 -1014.91503906 769.65527344 C-1013.95903809 769.86796875 -1013.00303711 770.08066406 -1012.01806641 770.29980469 C-993.22769632 774.61059226 -974.8239448 780.60037514 -956.41503906 786.28027344 C-938.90278446 791.69773968 -938.90278446 791.69773968 -921.30249023 796.81884766 C-918.4355682 797.63173145 -915.58552766 798.48885319 -912.73535156 799.35839844 C-899.55486354 803.29329341 -884.35560333 807.60068528 -871.35253906 800.65527344 C-868.47703707 798.86486654 -865.91283768 796.86930216 -863.35253906 794.65527344 C-862.74410156 794.15253906 -862.13566406 793.64980469 -861.50878906 793.13183594 C-856.08019498 788.25086319 -853.26143924 782.26559148 -850.35253906 775.65527344 C-849.98773437 774.83285156 -849.62292969 774.01042969 -849.24707031 773.16308594 C-845.74505462 763.34520788 -845.79935183 750.86131694 -849.99829102 741.31835938 C-854.11238147 733.22813067 -860.18289707 727.77311017 -867.47753906 722.59277344 C-869.25959116 721.29309127 -871.04081431 719.99227187 -872.82128906 718.69042969 C-873.73394531 718.0280127 -874.64660156 717.3655957 -875.58691406 716.68310547 C-880.10513294 713.37022359 -884.53609953 709.94496174 -888.97753906 706.53027344 C-896.20164361 701.00203693 -903.50437554 695.60355149 -910.89819336 690.30493164 C-916.40501709 686.35522245 -921.83939974 682.31864127 -927.25097656 678.23974609 C-934.7663334 672.5791882 -942.34883953 667.01053296 -949.92919922 661.4375 C-953.90576425 658.51296598 -957.87900177 655.5839191 -961.85253906 652.65527344 C-963.43585603 651.48858456 -965.01918937 650.3219179 -966.60253906 649.15527344 C-976.10253906 642.15527344 -976.10253906 642.15527344 -978.47802734 640.40478516 C-980.05956942 639.23952395 -981.64127488 638.07448445 -983.22314453 636.90966797 C-987.21026102 633.97330485 -991.19436174 631.03300419 -995.17285156 628.08496094 C-1002.82284445 622.42212021 -1010.49883937 616.81018979 -1018.29003906 611.34277344 C-1025.07625421 606.57231955 -1031.82539909 601.77881999 -1038.35253906 596.65527344 C-1038.91038086 596.21779785 -1039.46822266 595.78032227 -1040.04296875 595.32958984 C-1053.03552071 585.02082757 -1066.76615813 571.53155671 -1070.35253906 554.65527344 C-1073.54293922 513.39759863 -1047.71646656 470.23348248 -1027.35253906 435.65527344 C-1026.76182617 434.64577637 -1026.17111328 433.6362793 -1025.5625 432.59619141 C-1018.0668904 419.79653174 -1010.56710337 407.01144259 -1002.35253906 394.65527344 C-1001.29904025 393.05638981 -1000.24566522 391.45742463 -999.19238281 389.85839844 C-987.6742178 372.42628893 -975.84994161 355.27114478 -963.00878906 338.78369141 C-961.29419647 336.58029839 -959.58838986 334.37030947 -957.88378906 332.15917969 C-950.64797304 322.79099744 -943.27611692 313.54505825 -935.77197266 304.390625 C-934.50805288 302.84539938 -933.25200117 301.29374563 -931.99707031 299.74121094 C-922.36253227 287.8428197 -912.23352322 276.40298165 -901.79345703 265.20947266 C-900.36666845 263.67051365 -898.95307956 262.12055755 -897.54394531 260.56542969 C-888.9461576 251.0797857 -880.11653062 241.95466626 -870.35253906 233.65527344 C-869.32551083 232.75405274 -868.29956279 231.85160027 -867.27441406 230.94824219 C-847.22335926 213.37344101 -822.06079581 192.74787031 -794.35253906 191.65527344 C-793.09570312 191.56052734 -793.09570312 191.56052734 -791.81347656 191.46386719 C-766.45112236 190.30423152 -743.10873847 208.67184386 -723.56347656 222.65917969 C-720.21745335 225.05150175 -716.83775434 227.38736151 -713.43579102 229.69921875 C-698.00027272 240.19098359 -683.17385254 251.50826192 -668.35253906 262.84277344 C-663.97848057 266.18490033 -659.57794327 269.48970716 -655.16503906 272.78027344 C-649.56558943 276.95829168 -644.04080212 281.22331323 -638.54003906 285.53027344 C-630.77978666 291.60111094 -622.88522014 297.46978181 -614.93457031 303.28808594 C-611.38144534 305.89039556 -607.85884703 308.52943925 -604.34936523 311.19018555 C-559.0591846 347.81273484 -559.0591846 347.81273484 -505.35253906 364.09277344 C-504.32386719 364.11275391 -503.29519531 364.13273437 -502.23535156 364.15332031 C-494.04481619 364.14811005 -487.6551811 362.2916092 -481.04003906 357.40527344 C-477.80903546 354.09913022 -476.13685342 350.87039286 -474.35253906 346.65527344 C-473.96066406 345.80964844 -473.56878906 344.96402344 -473.16503906 344.09277344 C-467.52258085 327.16539879 -471.34754462 306.20246258 -473.66503906 288.90527344 C-473.82507416 287.69978348 -473.82507416 287.69978348 -473.98834229 286.46994019 C-475.18924875 277.55176863 -476.67039166 268.78362953 -478.64038086 259.99804688 C-479.8636256 254.25630297 -480.70023043 248.4543806 -481.60253906 242.65527344 C-483.25495019 232.37530817 -485.26318423 222.27831594 -487.72753906 212.15527344 C-493.28749759 189.26177469 -497.16835583 165.99685249 -501.11108398 142.77856445 C-501.81078137 138.6675864 -502.55837196 134.57429939 -503.38769531 130.48730469 C-508.80859799 103.59399532 -510.89303603 70.01116551 -496.42285156 45.61230469 C-469.76972086 7.54358782 -416.1601453 0.42905244 -373.578125 -7.09934998 C-348.94175316 -11.39801491 -324.26438792 -15.07159067 -299.35253906 -17.34472656 C-297.94610747 -17.47587238 -296.53969555 -17.60722934 -295.13330078 -17.73876953 C-290.60322011 -18.16058133 -286.07184395 -18.56692279 -281.54003906 -18.96972656 C-280.84720825 -19.03243744 -280.15437744 -19.09514832 -279.44055176 -19.15975952 C-186.27596182 -27.51858404 -91.71146851 -16.47659155 0 0 Z " fill="#F2C64B" transform="translate(1416.3525390625,209.3447265625)"/>
<path d="M0 0 C0.8042894 -0.00710495 1.6085788 -0.0142099 2.4372406 -0.02153015 C33.02381493 -0.22980968 61.49005726 3.63179491 91.28515625 10.203125 C92.22311035 10.40583008 93.16106445 10.60853516 94.12744141 10.81738281 C104.90964401 13.15092656 115.43604803 16.22166066 125.96582031 19.49023438 C128.00162077 20.11597515 130.04519167 20.71631808 132.08984375 21.3125 C181.22785436 35.89539347 227.82623852 60.21009766 266.28515625 94.203125 C267.09098145 94.9142041 267.09098145 94.9142041 267.91308594 95.63964844 C299.3053929 123.52943094 322.92680986 159.35783626 336.28515625 199.203125 C336.53201172 199.93402344 336.77886719 200.66492188 337.03320312 201.41796875 C347.30236797 232.42458837 351.53784949 271.20527113 343.28515625 303.203125 C343.04297363 304.15703125 342.80079102 305.1109375 342.55126953 306.09375 C331.54804799 347.99589385 306.94823474 380.88603736 279.36328125 413.37792969 C275.7844896 417.59721538 272.2653314 421.86143247 268.77734375 426.15625 C266.90070534 428.45057282 265.01039886 430.72938632 263.10546875 433 C246.68482937 452.62857586 231.43555053 473.01638801 220.28515625 496.140625 C219.84018799 497.06327148 219.39521973 497.98591797 218.93676758 498.93652344 C209.1979304 519.77379831 203.86049194 544.01905793 210.90234375 566.5234375 C215.66888237 579.20727755 221.46526996 589.90182702 230.28515625 600.203125 C231.06246094 601.11964844 231.83976562 602.03617188 232.640625 602.98046875 C237.18578027 608.1827549 241.98798347 612.78423993 247.28515625 617.203125 C248.20683594 618.00105469 249.12851563 618.79898438 250.078125 619.62109375 C256.78412273 625.41220103 263.69481182 630.86832819 270.75976562 636.21411133 C277.83346511 641.58055787 284.70604175 647.17836519 291.57226562 652.80615234 C293.85548804 654.66826731 296.16296343 656.4989973 298.47265625 658.328125 C303.93709649 662.68873006 309.26060863 667.21215211 314.57763672 671.75 C316.26797036 673.18849955 317.96527117 674.61837937 319.6640625 676.046875 C331.89936332 686.37533025 343.49976548 697.34847826 354.84765625 708.640625 C355.49009277 709.27838867 356.1325293 709.91615234 356.79443359 710.57324219 C361.15943849 714.9530669 365.24944578 719.5203082 369.28515625 724.203125 C370.22260791 725.26291482 371.16132888 726.32158377 372.1015625 727.37890625 C399.99412409 759.06996784 421.73575008 796.12213125 432.68017578 836.98291016 C433.16334221 838.75608025 433.68471446 840.51882505 434.21875 842.27734375 C443.06951918 871.48946794 440.98123984 904.79674527 434.28515625 934.203125 C434.12176758 934.94755859 433.95837891 935.69199219 433.79003906 936.45898438 C423.63369495 982.30333247 398.75606318 1026.26789439 370.28515625 1063.203125 C368.28515625 1062.203125 368.28515625 1062.203125 367.09375 1059.08984375 C366.63313662 1057.69127885 366.17641976 1056.29142732 365.72265625 1054.890625 C362.25258605 1044.67361818 357.90994758 1034.94397926 353.28515625 1025.203125 C352.86073242 1024.30899902 352.43630859 1023.41487305 351.99902344 1022.49365234 C335.10177501 987.20010488 312.63810626 956.01856378 286.28515625 927.203125 C285.30323468 926.11602155 284.32147298 925.02877368 283.33984375 923.94140625 C278.5915749 918.70738291 273.88694746 913.5961156 268.453125 909.05859375 C266.17360327 907.10765173 263.9933404 905.06531154 261.81152344 903.00634766 C254.64357028 896.26440236 247.15710093 890.10310778 239.28515625 884.203125 C238.60324219 883.69136719 237.92132812 883.17960938 237.21875 882.65234375 C188.95761633 846.6535671 133.97152412 824.65397211 76.28515625 808.828125 C67.95177192 806.5205161 59.64119269 804.14994811 51.34765625 801.703125 C43.00372054 799.24502995 34.62991587 796.93448573 26.22265625 794.703125 C14.15023305 791.48327714 2.19246549 787.98736068 -9.71484375 784.203125 C-10.87000488 783.83848145 -12.02516602 783.47383789 -13.21533203 783.09814453 C-73.03202543 764.09829259 -73.03202543 764.09829259 -93.71484375 743.203125 C-94.62234375 742.336875 -95.52984375 741.470625 -96.46484375 740.578125 C-97.20734375 739.794375 -97.94984375 739.010625 -98.71484375 738.203125 C-99.15957031 737.75324219 -99.60429688 737.30335938 -100.0625 736.83984375 C-107.56169154 728.78071258 -113.50124765 717.69035155 -116.71484375 707.203125 C-117.08609375 706.02363281 -117.45734375 704.84414063 -117.83984375 703.62890625 C-123.79465601 682.08821939 -123.00606308 654.82810834 -117.71484375 633.203125 C-117.360271 631.72440918 -117.360271 631.72440918 -116.99853516 630.21582031 C-107.75168731 592.37696963 -92.14121611 556.7604548 -67.71484375 526.203125 C-66.93496094 525.21183594 -66.15507813 524.22054687 -65.3515625 523.19921875 C-54.09529964 509.1438852 -41.47590638 495.82678 -27.71484375 484.203125 C-26.66591256 483.30296132 -25.61781014 482.40183145 -24.5703125 481.5 C-4.62669342 464.33869073 -4.62669342 464.33869073 4.78515625 456.765625 C10.11968614 452.42501043 15.14510201 447.79789682 20.1640625 443.1015625 C22.82147806 440.61786064 25.5434884 438.21875272 28.28515625 435.828125 C54.85292582 411.88274045 76.8716814 378.79247189 79.28515625 342.203125 C80.24577118 312.34599875 77.42585746 284.91191243 65.28515625 257.203125 C64.66632415 255.72334293 64.04897718 254.2429383 63.43359375 252.76171875 C51.80251533 225.45864132 34.69740166 201.63503854 14.28515625 180.203125 C13.71490723 179.60419434 13.1446582 179.00526367 12.55712891 178.38818359 C4.55959427 170.05069457 -3.65438448 162.40553455 -12.93798828 155.52246094 C-14.76963322 154.16244318 -16.58424858 152.78163126 -18.3984375 151.3984375 C-50.96768518 126.78006808 -88.78506665 110.97267516 -128.71484375 103.203125 C-130.60306107 102.82650461 -132.49108972 102.44893675 -134.37890625 102.0703125 C-135.21115723 101.9038623 -136.0434082 101.73741211 -136.90087891 101.56591797 C-137.7987915 101.38633545 -137.7987915 101.38633545 -138.71484375 101.203125 C-138.1732883 94.98369915 -136.19347349 89.84235289 -133.71484375 84.140625 C-133.31402588 83.21467529 -132.91320801 82.28872559 -132.50024414 81.3347168 C-127.1976492 69.41138527 -120.19104561 59.12488067 -111.71484375 49.203125 C-111.0290625 48.38328125 -110.34328125 47.5634375 -109.63671875 46.71875 C-83.17694504 16.07109843 -39.88885113 0.23561444 0 0 Z " fill="#45AD15" transform="translate(1777.71484375,67.796875)"/>
</svg>
