<?xml version="1.0" encoding="utf-8"?>
<!-- Generator: Adobe Illustrator 28.1.0, SVG Export Plug-In . SVG Version: 6.00 Build 0)  -->
<svg version="1.1" xmlns="http://www.w3.org/2000/svg" xmlns:xlink="http://www.w3.org/1999/xlink" x="0px" y="0px"
	 viewBox="0 0 1370.5 479.3" style="enable-background:new 0 0 1370.5 479.3;" xml:space="preserve">
<style type="text/css">
	.st0{display:none;}
	.st1{display:inline;fill:#F4EF4A;}
	.st2{display:inline;fill:#F2AF4C;}
	.st3{display:inline;}
	.st4{fill:#45AD15;}
	.st5{fill:#FFFFFF;}
	.st6{fill:#F4EF4A;}
	.st7{fill:#F2AF4C;}
	.st8{fill:url(#SVGID_1_);}
	.st9{fill:url(#SVGID_00000089571070981780412450000001274203507898243773_);}
	.st10{fill:url(#SVGID_00000131328166717614305750000007842428685514494081_);}
</style>
<g id="Ebene_1" class="st0">
</g>
<g id="Ebene_1_Kopie">
	<g>
		<g>
			<g>
				<path class="st4" d="M1305.8,207C1305.8,207,1305.8,207,1305.8,207c-4.7-13.5-15-25-28-31.1c-9.2-4.3-19.4-5.9-28.9-9.4
					c-3.5-1.3-7.1-2.9-9.4-5.9c-2.9-3.9-3-9.2-2-13.9c1.4-6.8,4.8-13.1,9.6-18.1c5.8-6,13.8-10.3,16.9-18c2.6-6.3,1.1-13.7-2.1-19.7
					c-5.5-10.2-16-17.5-27.5-19.1c4-13,17.1-16.1,30.1-13.1c10.9,2.1,21.7,6.5,29.3,14.6c7.6,8.1,11.2,20.4,7.1,30.7
					c-3.2,8-10.5,13.6-14.9,21.1c-2.1,3.5-3.6,7.8-2.5,11.8c1.2,4.4,5,7.5,8.7,10.3c5.7,4.4,11.3,9.1,15.8,14.8
					c4.4,5.7,7.6,12.6,7.8,19.8C1315.8,191,1311.2,199.6,1305.8,207z"/>
			</g>
			<g>
				<linearGradient id="SVGID_1_" gradientUnits="userSpaceOnUse" x1="1070.2065" y1="176.4958" x2="1244.7383" y2="284.4307">
					<stop  offset="0" style="stop-color:#F4EF4A"/>
					<stop  offset="0.6564" style="stop-color:#F2AF4C"/>
				</linearGradient>
				<path class="st8" d="M1276.8,262.4c-15.9,47.4-75.9,91.9-120.3,102.8c-26.8,6.6-55.8,8.2-81.4-2c-25.6-10.2-41.3-33.3-48.1-61.8
					c-3.2-17.7,9.5-17.8,15-19c5.5-1.3,13.8-2.1,19.7-3c6-0.4,6.5-12.6,1-14.5c-6.7-2.3-13.3-5.1-19.4-7
					c-14.8-4.7-19.7-7.5-18.1-18.3c0.6-3.9,2.6-16.4,5.2-27.3c1.2-4.9,6.2-23.5,9.8-26.7c4.3-3.9,10.9-1.9,17.9-0.4
					c5.7,1.2,13.2,3.7,19.4,5.4c5.9,1.2,9.6-7.5,4.9-10.9c-1.8-1.4-15.4-11.4-20.3-15.1c-3.5-2.6-7.9-5-9-9.2
					c-1.4-5.2,8.8-22,14.6-29.5c4.3-5.7,17-22.3,25.4-21.3c3.7,0.5,6.8,3.1,9.9,5.2c7.1,4.7,22.1,17.8,28,19c5,0.7,6.9-1.8,6.2-8.2
					c-0.6-5.3-1.7-10.9-2.8-15.8c-3.2-16.7-4.9-23.4,11.5-27c20.4-4.3,36-4,60.7,0.6c20,4.1,29.1,24.1,27.8,32.2
					c-2.6,19-22.5,18.5-27.4,40.7c-3.9,17.3,6.4,19,12.9,21.5c6.6,2.5,20.5,5.9,26.9,8.6c13.4,5.7,25.8,13,31.7,26.7
					C1283.4,222.4,1284.6,239.4,1276.8,262.4z"/>
			</g>
		</g>
		<g>
			<g>
				<path class="st4" d="M311.2,161.5c10.8,5.7,19.4,14.3,25.6,25.8c6.3,11.5,9.4,25.4,9.4,41.9v104.8H317V233.4
					c0-17.7-4.4-31.3-13.1-40.7c-8.8-9.4-20.6-14.1-35.5-14.1c-15.4,0-27.6,4.9-36.7,14.8c-9.1,9.8-13.6,24.1-13.6,42.7v98h-29.2
					V233.4c0-17.7-4.4-31.3-13.1-40.7c-8.8-9.4-20.6-14.1-35.5-14.1c-15.4,0-27.6,4.9-36.7,14.8c-9.1,9.8-13.6,24.1-13.6,42.7v98
					H60.3V156.1h29.5v25.6c5.8-9.3,13.7-16.4,23.5-21.4c9.8-5,20.7-7.5,32.6-7.5c14.9,0,28.1,3.4,39.6,10.1
					c11.5,6.7,20,16.5,25.6,29.5c5-12.5,13.2-22.3,24.7-29.2c11.5-6.9,24.2-10.4,38.3-10.4C288,152.9,300.3,155.8,311.2,161.5z"/>
				<path class="st4" d="M400.4,196.5c7.4-13.7,17.5-24.4,30.3-32c12.9-7.6,27.2-11.4,43-11.4c15.6,0,29.1,3.4,40.6,10.1
					c11.5,6.7,20,15.1,25.6,25.3v-32.4h29.9v177.8h-29.9v-33.1c-5.8,10.4-14.6,19-26.1,25.8c-11.6,6.8-25,10.2-40.4,10.2
					c-15.8,0-30.1-3.9-42.8-11.7c-12.8-7.8-22.8-18.7-30.2-32.8c-7.4-14.1-11-30.1-11-48C389.3,226.2,393,210.3,400.4,196.5z
					 M531.8,209.7c-5.4-9.9-12.7-17.6-21.9-22.9c-9.2-5.3-19.3-7.9-30.3-7.9s-21.1,2.6-30.2,7.8c-9.1,5.2-16.3,12.8-21.7,22.7
					c-5.4,10-8.1,21.6-8.1,35c0,13.6,2.7,25.5,8.1,35.5c5.4,10.1,12.7,17.7,21.7,23c9.1,5.3,19.1,8,30.2,8s21.1-2.6,30.3-8
					c9.2-5.3,16.5-13,21.9-23c5.4-10.1,8.1-21.8,8.1-35.2C539.9,231.3,537.2,219.6,531.8,209.7z"/>
				<path class="st4" d="M764.8,172.5c13.4,13.1,20.1,32,20.1,56.6v104.8h-29.2V233.4c0-17.7-4.4-31.3-13.3-40.7
					c-8.9-9.4-21-14.1-36.3-14.1c-15.6,0-28,4.9-37.2,14.6c-9.2,9.7-13.8,23.9-13.8,42.5v98.3h-29.5V156.1h29.5v25.3
					c5.8-9.1,13.8-16.1,23.8-21.1c10.1-5,21.1-7.5,33.3-7.5C733.8,152.9,751.3,159.4,764.8,172.5z"/>
				<path class="st4" d="M952.8,163.3c11.6,6.7,20.2,15.1,25.8,25.3v-32.4h29.9v181.7c0,16.2-3.5,30.7-10.4,43.3
					c-6.9,12.7-16.8,22.6-29.7,29.7c-12.9,7.1-27.9,10.7-44.9,10.7c-23.4,0-42.8-5.5-58.4-16.5s-24.8-26.1-27.6-45.1h29.2
					c3.2,10.8,9.9,19.5,20.1,26.1c10.2,6.6,22.4,9.9,36.7,9.9c16.2,0,29.5-5.1,39.7-15.2c10.3-10.2,15.4-24.4,15.4-42.8v-37.3
					c-5.8,10.4-14.5,19-26,26c-11.5,6.9-24.9,10.4-40.2,10.4c-15.8,0-30.1-3.9-43-11.7c-12.9-7.8-23-18.7-30.3-32.8
					c-7.4-14.1-11-30.1-11-48c0-18.2,3.7-34.1,11-47.9c7.4-13.7,17.5-24.4,30.3-32c12.9-7.6,27.2-11.4,43-11.4
					C927.8,153.2,941.2,156.6,952.8,163.3z M970.5,209.7c-5.4-9.9-12.7-17.6-21.9-22.9c-9.2-5.3-19.3-7.9-30.3-7.9
					s-21.1,2.6-30.2,7.8c-9.1,5.2-16.3,12.8-21.7,22.7c-5.4,10-8.1,21.6-8.1,35c0,13.6,2.7,25.5,8.1,35.5
					c5.4,10.1,12.7,17.7,21.7,23c9.1,5.3,19.1,8,30.2,8s21.1-2.6,30.3-8c9.2-5.3,16.5-13,21.9-23c5.4-10.1,8.1-21.8,8.1-35.2
					C978.6,231.3,975.9,219.6,970.5,209.7z"/>
				<path class="st4" d="M1096.5,325.5c-13.5-7.6-24.1-18.3-31.8-32.3c-7.7-14-11.5-30.1-11.5-48.5c0-18.2,3.9-34.2,11.8-48.2
					c7.9-14,18.7-24.7,32.3-32.1s28.9-11.2,45.8-11.2s32.1,3.7,45.8,11.2s24.4,18.1,32.3,32c7.9,13.8,11.8,30,11.8,48.3
					c0,18.4-4.1,34.6-12.2,48.5c-8.1,14-19.1,24.7-32.9,32.3c-13.8,7.6-29.2,11.4-46.1,11.4C1125.1,336.9,1110.1,333.1,1096.5,325.5
					z M1171.7,303.4c9.3-5,16.8-12.4,22.6-22.4c5.7-9.9,8.6-22.1,8.6-36.3c0-14.3-2.8-26.4-8.4-36.3c-5.6-9.9-13-17.4-22.1-22.2
					c-9.1-4.9-18.9-7.3-29.5-7.3c-10.8,0-20.7,2.4-29.7,7.3c-9,4.9-16.2,12.3-21.6,22.2c-5.4,10-8.1,22.1-8.1,36.3
					c0,14.5,2.6,26.7,7.9,36.7c5.3,10,12.4,17.4,21.3,22.2c8.9,4.9,18.6,7.3,29.2,7.3C1152.4,310.9,1162.3,308.4,1171.7,303.4z"/>
			</g>
		</g>
	</g>
</g>
</svg>
