<?xml version="1.0" encoding="UTF-8"?>
<svg version="1.1" xmlns="http://www.w3.org/2000/svg" width="821" height="304">
<path d="M0 0 C15.64660511 12.31525375 25.49744619 28.04997086 28.65234375 47.83203125 C30.69946 67.44391035 27.33080192 87.55184271 14.98828125 103.375 C13.98861328 104.60669922 13.98861328 104.60669922 12.96875 105.86328125 C12.43636719 106.57097656 11.90398437 107.27867187 11.35546875 108.0078125 C0.64746701 121.47916953 -16.37709519 128.61818927 -32.90625 131.55078125 C-54.76458333 133.63042025 -74.14834059 128.29443155 -91.625 114.87109375 C-105.59101331 103.10343439 -113.70222198 86.89970751 -116.03125 68.86328125 C-117.73920441 46.05590165 -112.00119099 26.33071635 -97.24609375 8.734375 C-72.18966249 -17.74369775 -29.35253248 -20.69050937 0 0 Z M-75.84375 27 C-77.39887578 29.22771769 -78.74095973 31.47340399 -80.03125 33.86328125 C-80.42054688 34.55035156 -80.80984375 35.23742187 -81.2109375 35.9453125 C-87.54013942 48.39582285 -87.31917609 64.05188507 -83.34375 77.17578125 C-79.58586499 87.28180771 -73.17616309 96.23311983 -63.37109375 101.21484375 C-60.94207987 102.20934428 -58.5406257 103.0961664 -56.03125 103.86328125 C-55.14373047 104.14945313 -55.14373047 104.14945313 -54.23828125 104.44140625 C-42.84481739 106.61927191 -30.50801789 105.39394437 -20.54296875 99.35546875 C-10.20948432 91.88757244 -4.73201849 82.19580756 -2.03125 69.86328125 C-0.81089484 54.12154129 -1.51125294 39.44510402 -12.03125 26.86328125 C-17.60454255 20.86209676 -23.20287304 17.25641203 -31.03125 14.86328125 C-31.62292969 14.6725 -32.21460938 14.48171875 -32.82421875 14.28515625 C-48.15728043 11.35423473 -65.40850954 14.69811093 -75.84375 27 Z " fill="#e4ede4" transform="translate(319.03125,110.13671875)"/>
<path d="M0 0 C84.3372093 0 84.3372093 0 105.8125 20.3125 C121.26592304 36.66015367 124.64433744 55.96607023 124.3125 77.578125 C123.71950218 94.56751241 116.87081424 109.8369811 105 122 C75.60466038 148.10174414 38.05469355 141 0 141 C0 94.47 0 47.94 0 0 Z M30 25 C30 55.03 30 85.06 30 116 C59.15362385 116.90343615 59.15362385 116.90343615 83.1796875 103.9140625 C93.03416074 93.55206274 94.41900504 80.02502515 94.21484375 66.3359375 C93.84377808 55.78476594 90.60152248 46.19146126 83.5625 38.25 C82.2940625 37.13625 82.2940625 37.13625 81 36 C79.63875 34.7315625 79.63875 34.7315625 78.25 33.4375 C64.76913402 22.52931837 46.11000559 25 30 25 Z " fill="#e4ede4" transform="translate(367,99)"/>
<path d="M0 0 C9.27191693 7.71399288 16.51619703 17.42945192 20.39453125 28.9921875 C20.39453125 29.9821875 20.39453125 30.9721875 20.39453125 31.9921875 C15.82332172 32.21591021 11.25533966 32.37851445 6.67993164 32.48657227 C5.12663241 32.53163523 3.57371085 32.59291204 2.02172852 32.67114258 C-10.89426706 33.30553979 -10.89426706 33.30553979 -15.11621094 30.06518555 C-16.87508394 27.78546547 -18.22825848 25.51413776 -19.60546875 22.9921875 C-25.73789733 15.93887658 -34.03681126 13.5958694 -43.13671875 12.609375 C-54.76495656 12.22348215 -64.98475085 14.9913864 -73.60546875 22.9921875 C-74.14816406 23.49363281 -74.69085938 23.99507812 -75.25 24.51171875 C-85.35269056 35.02363222 -86.06437789 48.71823735 -85.8828125 62.40625 C-85.46465395 74.82618291 -80.87737728 85.2011336 -71.85546875 93.8046875 C-62.5508221 101.50200556 -51.2731889 102.74011828 -39.60546875 101.9921875 C-29.54789099 100.20323459 -21.49018899 95.36948033 -15.60546875 86.9921875 C-14.61546875 85.0121875 -14.61546875 85.0121875 -13.60546875 82.9921875 C-2.38546875 82.9921875 8.83453125 82.9921875 20.39453125 82.9921875 C18.10535949 96.72721807 9.09160338 108.34211902 -1.93359375 116.56640625 C-18.88168817 128.42695556 -39.32373505 132.14661516 -59.60546875 128.9921875 C-75.11590874 125.94561632 -87.37132746 119.1675113 -98.60546875 107.9921875 C-99.23066406 107.40179688 -99.85585937 106.81140625 -100.5 106.203125 C-113.56335494 92.81539781 -117.86296729 73.44417379 -117.85424805 55.40405273 C-117.58744613 35.39774812 -109.67214965 17.32168025 -95.50390625 3.27929688 C-69.85789924 -20.75593876 -27.35257055 -21.22527437 0 0 Z " fill="#e4ede4" transform="translate(166.60546875,112.0078125)"/>
<path d="M0 0 C10.89 0 21.78 0 33 0 C38.46247156 10.87606195 43.83435745 21.78953947 49.125 32.75 C53.68766919 42.19891654 58.27525405 51.63070181 63 61 C64.89066845 56.9734085 66.78060819 52.9464759 68.66986084 48.91921997 C69.34689431 47.4760419 70.02401796 46.03290614 70.70123291 44.58981323 C74.43752062 36.62685424 78.16458236 28.65990109 81.85546875 20.67578125 C82.15589584 20.02634552 82.45632294 19.37690979 82.76585388 18.70779419 C84.19665643 15.61413921 85.62496268 12.51936856 87.04956055 9.42285156 C87.55656494 8.32553711 88.06356934 7.22822266 88.5859375 6.09765625 C89.0298584 5.13351807 89.4737793 4.16937988 89.93115234 3.17602539 C91 1 91 1 92 0 C94.3756852 -0.0883967 96.72208674 -0.11530305 99.09765625 -0.09765625 C100.16094398 -0.09553383 100.16094398 -0.09553383 101.24571228 -0.09336853 C103.51801712 -0.08775443 105.79022475 -0.07519963 108.0625 -0.0625 C109.59960796 -0.05748681 111.13671745 -0.05292359 112.67382812 -0.04882812 C116.44925642 -0.03778042 120.22461171 -0.02050641 124 0 C123.38550792 4.63010051 121.45995408 8.39481279 119.31640625 12.4765625 C118.94558929 13.19448975 118.57477234 13.91241699 118.19271851 14.65209961 C116.9886216 16.97955397 115.77570205 19.30228074 114.5625 21.625 C113.72614625 23.23720939 112.89029192 24.84967796 112.05493164 26.46240234 C108.40116827 33.50826616 104.73609347 40.54874683 101.02099609 47.5625 C100.2881994 48.9574226 99.56745399 50.35873211 98.85791016 51.765625 C96.71291078 55.97287624 94.39879628 59.97091884 91.82385254 63.93287659 C75.82979797 88.82419881 75.84944036 111.97505729 77 141 C67.43 141 57.86 141 48 141 C48.14824219 137.89207031 48.29648437 134.78414062 48.44921875 131.58203125 C49.37496637 102.90129139 45.59271485 82.8953006 30.26074219 58.62304688 C27.45601254 54.17969932 25.05261548 49.56367392 22.6875 44.875 C21.95216986 43.48021102 21.2138582 42.08699004 20.47265625 40.6953125 C18.43812435 36.84703724 16.43304318 32.98377199 14.43359375 29.1171875 C14.11966171 28.51031097 13.80572968 27.90343445 13.48228455 27.27816772 C11.92579965 24.26838206 10.37126326 21.25761969 8.8190918 18.24560547 C5.323886 11.47044672 5.323886 11.47044672 1.5859375 4.828125 C0 2 0 2 0 0 Z " fill="#e4ede4" transform="translate(499,99)"/>
<path d="M0 0 C9.24 0 18.48 0 28 0 C28 12.54 28 25.08 28 38 C40.54 38 53.08 38 66 38 C66 46.91 66 55.82 66 65 C53.46 65 40.92 65 28 65 C28 77.54 28 90.08 28 103 C18.76 103 9.52 103 0 103 C0 90.46 0 77.92 0 65 C-12.21 65 -24.42 65 -37 65 C-37 56.09 -37 47.18 -37 38 C-24.79 38 -12.58 38 0 38 C0 25.46 0 12.92 0 0 Z " fill="#e4ede4" transform="translate(684,36)"/>
<path d="M0 0 C0.66 0.33 1.32 0.66 2 1 C0.06852571 2.9853759 -1.86966609 4.96329392 -3.8125 6.9375 C-4.35970703 7.50146484 -4.90691406 8.06542969 -5.47070312 8.64648438 C-9.66015625 12.88671875 -9.66015625 12.88671875 -13 14 C-11.43416404 9.96278439 -8.55826135 7.52929418 -5.375 4.75 C-4.859375 4.29109375 -4.34375 3.8321875 -3.8125 3.359375 C-2.5465398 2.23407704 -1.27392058 1.11627823 0 0 Z " fill="#ffffff" transform="translate(232,110)"/>
</svg>
